<svg width="12" height="12" viewBox="0 0 12 12" fill="none" xmlns="http://www.w3.org/2000/svg">
<path d="M7.80709 6.36979L6.58317 5.66341V3.08341C6.58317 2.9287 6.52171 2.78033 6.41232 2.67094C6.30292 2.56154 6.15455 2.50008 5.99984 2.50008C5.84513 2.50008 5.69676 2.56154 5.58736 2.67094C5.47796 2.78033 5.41651 2.9287 5.41651 3.08341V6.00008C5.41648 6.1025 5.44342 6.20312 5.49462 6.29182C5.54582 6.38052 5.61947 6.45417 5.70817 6.50537L7.22375 7.38037C7.29011 7.41872 7.36338 7.44362 7.43936 7.45364C7.51534 7.46367 7.59256 7.45863 7.66659 7.4388C7.74062 7.41898 7.81003 7.38476 7.87083 7.33811C7.93164 7.29145 7.98265 7.23327 8.02097 7.1669C8.05928 7.10052 8.08414 7.02724 8.09413 6.95126C8.10412 6.87527 8.09904 6.79806 8.07917 6.72403C8.05931 6.65001 8.02506 6.58062 7.97837 6.51984C7.93169 6.45906 7.87348 6.40807 7.80709 6.36979ZM5.99984 0.166748C4.84612 0.166748 3.7183 0.508867 2.75901 1.14984C1.79973 1.79082 1.05205 2.70186 0.610543 3.76776C0.169031 4.83366 0.0535119 6.00655 0.278592 7.13811C0.503673 8.26966 1.05924 9.30906 1.87505 10.1249C2.69086 10.9407 3.73026 11.4962 4.86181 11.7213C5.99337 11.9464 7.16626 11.8309 8.23216 11.3894C9.29806 10.9479 10.2091 10.2002 10.8501 9.24091C11.4911 8.28162 11.8332 7.15381 11.8332 6.00008C11.8315 4.45351 11.2163 2.97078 10.1227 1.87719C9.02914 0.783602 7.54641 0.168468 5.99984 0.166748ZM5.99984 10.6667C5.07686 10.6667 4.17461 10.3931 3.40718 9.88027C2.63975 9.36749 2.04161 8.63866 1.6884 7.78594C1.33519 6.93322 1.24278 5.9949 1.42284 5.08966C1.60291 4.18442 2.04736 3.35289 2.70001 2.70025C3.35265 2.0476 4.18417 1.60315 5.08942 1.42308C5.99466 1.24302 6.93297 1.33543 7.7857 1.68864C8.63842 2.04185 9.36725 2.63999 9.88003 3.40742C10.3928 4.17485 10.6665 5.0771 10.6665 6.00008C10.6651 7.23732 10.173 8.42349 9.29811 9.29835C8.42324 10.1732 7.23708 10.6653 5.99984 10.6667Z" fill="#BEBEBE"/>
</svg>
